<svg width="37.583939" height="37.583397" viewBox="0 0 37.5839 37.5834" fill="none" xmlns="http://www.w3.org/2000/svg" xmlns:xlink="http://www.w3.org/1999/xlink">
	<defs/>
	<path id="Vector" d="M18.79 37.58C21.26 37.59 23.7 37.1 25.98 36.16C28.26 35.21 30.33 33.82 32.07 32.07C32.39 31.75 32.57 31.32 32.57 30.87C32.57 30.41 32.39 29.98 32.07 29.66L21.2 18.79L32.07 7.91C32.39 7.59 32.57 7.16 32.57 6.71C32.57 6.25 32.39 5.82 32.07 5.5C29.89 3.31 27.2 1.7 24.24 0.8C21.28 -0.09 18.15 -0.25 15.12 0.36C12.09 0.96 9.25 2.3 6.87 4.26C4.48 6.22 2.61 8.74 1.43 11.6C0.24 14.45 -0.22 17.55 0.09 20.63C0.39 23.7 1.45 26.66 3.16 29.23C4.88 31.8 7.2 33.9 9.93 35.36C12.65 36.82 15.7 37.58 18.79 37.58ZM18.79 3.41C22.28 3.4 25.66 4.59 28.38 6.77L17.58 17.58C17.26 17.9 17.08 18.33 17.08 18.79C17.08 19.24 17.26 19.67 17.58 19.99L28.38 30.8C26.47 32.33 24.21 33.38 21.8 33.86C19.39 34.34 16.9 34.24 14.54 33.56C12.18 32.88 10.02 31.65 8.23 29.96C6.45 28.28 5.09 26.19 4.28 23.87C3.47 21.55 3.22 19.08 3.57 16.64C3.91 14.21 4.83 11.9 6.25 9.89C7.67 7.89 9.55 6.26 11.73 5.13C13.91 4 16.33 3.41 18.79 3.41ZM37.58 18.79C37.58 19.46 37.38 20.12 37 20.68C36.63 21.25 36.09 21.68 35.47 21.94C34.85 22.2 34.16 22.27 33.5 22.14C32.83 22.01 32.22 21.68 31.75 21.2C31.27 20.72 30.94 20.12 30.81 19.45C30.68 18.79 30.75 18.1 31.01 17.48C31.26 16.85 31.7 16.32 32.26 15.95C32.83 15.57 33.49 15.37 34.16 15.37C35.07 15.37 35.94 15.73 36.58 16.37C37.22 17.01 37.58 17.88 37.58 18.79ZM11.95 10.25C11.95 9.57 12.15 8.91 12.53 8.35C12.91 7.78 13.44 7.35 14.06 7.09C14.69 6.83 15.37 6.76 16.04 6.89C16.7 7.03 17.31 7.35 17.79 7.83C18.26 8.31 18.59 8.92 18.72 9.58C18.85 10.24 18.79 10.93 18.53 11.55C18.27 12.18 17.83 12.71 17.27 13.09C16.71 13.46 16.05 13.66 15.37 13.66C14.46 13.66 13.6 13.3 12.95 12.66C12.31 12.02 11.95 11.15 11.95 10.25Z" fill="#FFFFFF" fill-opacity="1.000000" fill-rule="nonzero"/>
</svg>
