 <svg  width="7.999435" height="13.307202" viewBox="0 0 7.99944 13.3072" fill="none" xmlns="http://www.w3.org/2000/svg" xmlns:xlink="http://www.w3.org/1999/xlink">
  <path id="Vector" d="M6.33 6.67e-6L1.66 6.67e-6C1.44 -0.01 1.22 0.04 1.02 0.12C0.82 0.2 0.64 0.33 0.48 0.48C0.33 0.64 0.2 0.82 0.12 1.02C0.04 1.22 -0.01 1.44 0 1.66L0 11.64C0 12.56 0.75 13.3 1.66 13.3L6.33 13.3C6.55 13.3 6.77 13.26 6.97 13.18C7.17 13.09 7.35 12.97 7.51 12.82C7.66 12.66 7.79 12.48 7.87 12.28C7.95 12.07 8 11.86 7.99 11.64L7.99 1.66C8 1.44 7.95 1.22 7.87 1.02C7.79 0.82 7.66 0.64 7.51 0.48C7.35 0.33 7.17 0.2 6.97 0.12C6.77 0.04 6.55 -0.01 6.33 6.67e-6ZM4 12.23C3.58 12.23 3.25 11.9 3.25 11.47C3.25 11.05 3.58 10.72 4 10.72C4.43 10.72 4.76 11.05 4.76 11.47C4.76 11.9 4.43 12.23 4 12.23ZM7.24 9.91L0.75 9.91L0.75 2.22L7.24 2.22L7.24 9.91Z" fill="#343A3F" fill-opacity="0.500000" fill-rule="nonzero"/>
</svg>