<svg width="23.999939" height="20.827988" viewBox="0 0 23.9999 20.828" fill="none" xmlns="http://www.w3.org/2000/svg" xmlns:xlink="http://www.w3.org/1999/xlink">
	<path id="Vector" d="M23.53 0.38C23.34 0.2 23.1 0.08 22.85 0.03C22.6 -0.03 22.34 -0.01 22.09 0.07L0.99 7.02C0.42 7.21 0.03 7.73 0 8.33C-0.03 8.94 0.31 9.48 0.86 9.73L6.08 12.01L7.66 19.31C7.72 19.62 7.88 19.89 8.2 19.97C8.53 20.05 8.77 19.87 9.01 19.69L12.88 16.79L17.41 20.49C17.68 20.71 18 20.82 18.33 20.82C18.49 20.82 18.64 20.8 18.79 20.75C19.27 20.58 19.62 20.19 19.74 19.7L23.96 1.78C24.02 1.52 24.01 1.26 23.93 1.02C23.85 0.77 23.71 0.55 23.53 0.38ZM9.35 13.32C9.35 13.33 9.34 13.33 9.34 13.34L8.47 16.39L7.49 11.87L14.19 8.15L9.51 13.05C9.44 13.12 9.38 13.22 9.35 13.32ZM9.63 17.47L10.02 16.08L10.4 14.76L11.76 15.87L9.63 17.47ZM22.58 1.45L18.37 19.38C18.37 19.39 18.36 19.4 18.34 19.41C18.32 19.42 18.31 19.41 18.3 19.4L13.35 15.35L13.35 15.35L11.05 13.47L18.43 5.76C18.55 5.64 18.61 5.48 18.62 5.31C18.63 5.14 18.58 4.98 18.48 4.84C18.37 4.71 18.23 4.62 18.06 4.58C17.9 4.55 17.72 4.57 17.58 4.66L6.66 10.72L1.43 8.44C1.41 8.43 1.4 8.42 1.4 8.4C1.41 8.37 1.41 8.37 1.43 8.36L22.53 1.41C22.54 1.4 22.56 1.4 22.57 1.41C22.59 1.43 22.59 1.44 22.58 1.45Z" fill="#343A3F" fill-opacity="1.000000" fill-rule="nonzero"/>
</svg>
