<svg width="22.392334" height="22.499985" viewBox="0 0 22.3923 22.5" fill="none" xmlns="http://www.w3.org/2000/svg" xmlns:xlink="http://www.w3.org/1999/xlink">
	<path id="Vector" d="M19.12 3.26C17.02 1.16 14.22 0 11.24 0C5.09 0 0.09 5 0.09 11.14C0.09 13.11 0.6 15.03 1.58 16.72L0 22.5L5.91 20.94C7.53 21.83 9.37 22.3 11.23 22.3L11.24 22.3C17.38 22.3 22.39 17.3 22.39 11.15C22.39 8.17 21.23 5.37 19.12 3.26ZM11.24 20.42L11.23 20.42C9.57 20.42 7.94 19.97 6.52 19.13L6.18 18.93L2.67 19.85L3.61 16.43L3.39 16.08C2.46 14.6 1.97 12.9 1.97 11.14C1.97 6.03 6.13 1.88 11.24 1.88C13.72 1.88 16.04 2.84 17.79 4.6C19.54 6.35 20.51 8.68 20.5 11.15C20.5 16.26 16.35 20.42 11.24 20.42ZM16.32 13.48C16.04 13.34 14.67 12.67 14.42 12.57C14.16 12.48 13.98 12.43 13.79 12.71C13.61 12.99 13.07 13.62 12.91 13.8C12.75 13.99 12.58 14.01 12.3 13.87C12.03 13.73 11.13 13.44 10.06 12.49C9.24 11.75 8.68 10.84 8.51 10.56C8.35 10.28 8.51 10.15 8.64 9.99C8.94 9.62 9.24 9.23 9.33 9.04C9.43 8.85 9.38 8.69 9.31 8.55C9.24 8.41 8.68 7.04 8.45 6.48C8.23 5.94 8 6.01 7.82 6C7.66 6 7.48 5.99 7.29 5.99C7.1 5.99 6.8 6.06 6.55 6.34C6.29 6.62 5.57 7.3 5.57 8.67C5.57 10.04 6.57 11.36 6.71 11.55C6.85 11.74 8.67 14.55 11.47 15.76C12.13 16.04 12.65 16.21 13.06 16.34C13.72 16.55 14.33 16.52 14.81 16.45C15.35 16.37 16.46 15.78 16.69 15.13C16.92 14.48 16.92 13.92 16.85 13.8C16.79 13.69 16.6 13.62 16.32 13.48Z" fill="#343A3F" fill-opacity="1.000000" fill-rule="evenodd"/>
</svg>
